<svg width="25" height="23" viewBox="0 0 25 23" fill="none" xmlns="http://www.w3.org/2000/svg">
<path d="M24.3952 4.71339C24.0073 3.79104 23.448 2.95521 22.7486 2.25269C22.0486 1.54808 21.2234 0.988137 20.3177 0.603309C19.3786 0.202681 18.3713 -0.0023828 17.3544 2.08888e-05C15.9277 2.08888e-05 14.5358 0.401222 13.3262 1.15905C13.0368 1.34033 12.7619 1.53945 12.5014 1.75639C12.241 1.53945 11.9661 1.34033 11.6767 1.15905C10.4671 0.401222 9.07511 2.08888e-05 7.64844 2.08888e-05C6.62113 2.08888e-05 5.62564 0.202108 4.68514 0.603309C3.77647 0.989651 2.95751 1.54539 2.25431 2.25269C1.55399 2.95441 0.994552 3.79044 0.607708 4.71339C0.205463 5.6733 0 6.69265 0 7.74172C0 8.73135 0.196782 9.76259 0.587452 10.8117C0.914457 11.6884 1.38326 12.5977 1.98229 13.516C2.93147 14.9693 4.2366 16.4849 5.85715 18.0214C8.54264 20.5683 11.2021 22.3276 11.315 22.3989L12.0008 22.8507C12.3047 23.0498 12.6953 23.0498 12.9992 22.8507L13.685 22.3989C13.7979 22.3246 16.4544 20.5683 19.1428 18.0214C20.7634 16.4849 22.0685 14.9693 23.0177 13.516C23.6167 12.5977 24.0884 11.6884 24.4125 10.8117C24.8032 9.76259 25 8.73135 25 7.74172C25.0029 6.69265 24.7974 5.6733 24.3952 4.71339ZM12.5014 20.4999C12.5014 20.4999 2.19933 13.7211 2.19933 7.74172C2.19933 4.71339 4.63884 2.25864 7.64844 2.25864C9.76385 2.25864 11.5985 3.47115 12.5014 5.24238C13.4043 3.47115 15.239 2.25864 17.3544 2.25864C20.364 2.25864 22.8035 4.71339 22.8035 7.74172C22.8035 13.7211 12.5014 20.4999 12.5014 20.4999Z" fill="black"/>
</svg>
