<svg width="26" height="26" viewBox="0 0 26 26" fill="none" xmlns="http://www.w3.org/2000/svg">
<path fill-rule="evenodd" clip-rule="evenodd" d="M18 1.25C21.7279 1.25 24.75 4.27208 24.75 8V18C24.75 21.7279 21.7279 24.75 18 24.75H8C4.27208 24.75 1.25 21.7279 1.25 18V8C1.25 4.27208 4.27208 1.25 8 1.25H18ZM18 2.75H8C5.10051 2.75 2.75 5.10051 2.75 8V18C2.75 20.8995 5.10051 23.25 8 23.25H18C20.8995 23.25 23.25 20.8995 23.25 18V8C23.25 5.10051 20.8995 2.75 18 2.75ZM13.7432 6.89823C13.6935 6.53215 13.3797 6.25 13 6.25L12.8982 6.25685L12.8006 6.27679C12.4832 6.36411 12.25 6.65482 12.25 7V12.249L7 12.25L6.89823 12.2568C6.53215 12.3065 6.25 12.6203 6.25 13L6.25685 13.1018C6.30651 13.4678 6.6203 13.75 7 13.75L12.25 13.749V19L12.2568 19.1018C12.3065 19.4678 12.6203 19.75 13 19.75L13.1018 19.7432C13.4678 19.6935 13.75 19.3797 13.75 19V13.75H19L19.1018 13.7432C19.4678 13.6935 19.75 13.3797 19.75 13L19.7432 12.8982C19.6935 12.5322 19.3797 12.25 19 12.25H13.75V7L13.7432 6.89823Z" fill="#262626"/>
<path d="M13 6.25V5.75H12.9832L12.9664 5.75113L13 6.25ZM13.7432 6.89823L14.242 6.86467L14.2409 6.84778L14.2386 6.83101L13.7432 6.89823ZM12.8982 6.25685L12.8647 5.75797L12.8311 5.76023L12.7981 5.76697L12.8982 6.25685ZM12.8006 6.27679L12.7005 5.78691L12.6841 5.79026L12.668 5.7947L12.8006 6.27679ZM12.25 12.249L12.2501 12.749L12.75 12.7489V12.249H12.25ZM7 12.25L6.9999 11.75L6.98315 11.75L6.96644 11.7511L7 12.25ZM6.89823 12.2568L6.86467 11.758L6.84778 11.7591L6.83101 11.7614L6.89823 12.2568ZM6.25 13H5.75V13.0168L5.75113 13.0336L6.25 13ZM6.25685 13.1018L5.75797 13.1353L5.75911 13.1522L5.76138 13.169L6.25685 13.1018ZM7 13.75L7 14.25L7.0001 14.25L7 13.75ZM12.25 13.749H12.75V13.2489L12.2499 13.249L12.25 13.749ZM12.25 19H11.75V19.0168L11.7511 19.0336L12.25 19ZM12.2568 19.1018L11.758 19.1353L11.7591 19.1522L11.7614 19.169L12.2568 19.1018ZM13 19.75V20.25H13.0168L13.0336 20.2489L13 19.75ZM13.1018 19.7432L13.1353 20.242L13.1522 20.2409L13.169 20.2386L13.1018 19.7432ZM13.75 13.75V13.25H13.25V13.75H13.75ZM19 13.75V14.25H19.0168L19.0336 14.2489L19 13.75ZM19.1018 13.7432L19.1353 14.242L19.1522 14.2409L19.169 14.2386L19.1018 13.7432ZM19.75 13H20.25V12.9832L20.2489 12.9664L19.75 13ZM19.7432 12.8982L20.242 12.8647L20.2409 12.8478L20.2386 12.831L19.7432 12.8982ZM13.75 12.25H13.25V12.75H13.75V12.25ZM13.75 7H14.25V6.9832L14.2489 6.96644L13.75 7ZM25.25 8C25.25 3.99594 22.0041 0.75 18 0.75V1.75C21.4518 1.75 24.25 4.54822 24.25 8H25.25ZM25.25 18V8H24.25V18H25.25ZM18 25.25C22.0041 25.25 25.25 22.0041 25.25 18H24.25C24.25 21.4518 21.4518 24.25 18 24.25V25.25ZM8 25.25H18V24.25H8V25.25ZM0.75 18C0.75 22.0041 3.99594 25.25 8 25.25V24.25C4.54822 24.25 1.75 21.4518 1.75 18H0.75ZM0.75 8V18H1.75V8H0.75ZM8 0.75C3.99594 0.75 0.75 3.99594 0.75 8H1.75C1.75 4.54822 4.54822 1.75 8 1.75V0.75ZM18 0.75H8V1.75H18V0.75ZM8 3.25H18V2.25H8V3.25ZM3.25 8C3.25 5.37665 5.37665 3.25 8 3.25V2.25C4.82436 2.25 2.25 4.82436 2.25 8H3.25ZM3.25 18V8H2.25V18H3.25ZM8 22.75C5.37665 22.75 3.25 20.6234 3.25 18H2.25C2.25 21.1756 4.82436 23.75 8 23.75V22.75ZM18 22.75H8V23.75H18V22.75ZM22.75 18C22.75 20.6234 20.6234 22.75 18 22.75V23.75C21.1756 23.75 23.75 21.1756 23.75 18H22.75ZM22.75 8V18H23.75V8H22.75ZM18 3.25C20.6234 3.25 22.75 5.37665 22.75 8H23.75C23.75 4.82436 21.1756 2.25 18 2.25V3.25ZM13 6.75C13.1262 6.75 13.2312 6.84391 13.2477 6.96544L14.2386 6.83101C14.1558 6.2204 13.6332 5.75 13 5.75V6.75ZM12.9318 6.75572L13.0336 6.74887L12.9664 5.75113L12.8647 5.75797L12.9318 6.75572ZM12.9007 6.76667L12.9983 6.74672L12.7981 5.76697L12.7005 5.78691L12.9007 6.76667ZM12.75 7C12.75 6.88565 12.8272 6.78805 12.9332 6.75888L12.668 5.7947C12.1392 5.94016 11.75 6.42399 11.75 7H12.75ZM12.75 12.249V7H11.75V12.249H12.75ZM7.0001 12.75L12.2501 12.749L12.2499 11.749L6.9999 11.75L7.0001 12.75ZM6.93179 12.7557L7.03356 12.7489L6.96644 11.7511L6.86467 11.758L6.93179 12.7557ZM6.75 13C6.75 12.8738 6.84391 12.7688 6.96544 12.7523L6.83101 11.7614C6.2204 11.8442 5.75 12.3668 5.75 13H6.75ZM6.75572 13.0682L6.74887 12.9664L5.75113 13.0336L5.75797 13.1353L6.75572 13.0682ZM7 13.25C6.87384 13.25 6.7688 13.1561 6.75231 13.0346L5.76138 13.169C5.84422 13.7796 6.36676 14.25 7 14.25V13.25ZM12.2499 13.249L6.9999 13.25L7.0001 14.25L12.2501 14.249L12.2499 13.249ZM12.75 19V13.749H11.75V19H12.75ZM12.7557 19.0682L12.7489 18.9664L11.7511 19.0336L11.758 19.1353L12.7557 19.0682ZM13 19.25C12.8738 19.25 12.7688 19.1561 12.7523 19.0346L11.7614 19.169C11.8442 19.7796 12.3668 20.25 13 20.25V19.25ZM13.0682 19.2443L12.9664 19.2511L13.0336 20.2489L13.1353 20.242L13.0682 19.2443ZM13.25 19C13.25 19.1262 13.1561 19.2312 13.0346 19.2477L13.169 20.2386C13.7796 20.1558 14.25 19.6332 14.25 19H13.25ZM13.25 13.75V19H14.25V13.75H13.25ZM19 13.25H13.75V14.25H19V13.25ZM19.0682 13.2443L18.9664 13.2511L19.0336 14.2489L19.1353 14.242L19.0682 13.2443ZM19.25 13C19.25 13.1262 19.1561 13.2312 19.0346 13.2477L19.169 14.2386C19.7796 14.1558 20.25 13.6332 20.25 13H19.25ZM19.2443 12.9318L19.2511 13.0336L20.2489 12.9664L20.242 12.8647L19.2443 12.9318ZM19 12.75C19.1262 12.75 19.2312 12.8439 19.2477 12.9654L20.2386 12.831C20.1558 12.2204 19.6332 11.75 19 11.75V12.75ZM13.75 12.75H19V11.75H13.75V12.75ZM13.25 7V12.25H14.25V7H13.25ZM13.2443 6.93179L13.2511 7.03356L14.2489 6.96644L14.242 6.86467L13.2443 6.93179Z" fill="black"/>
</svg>
